<?xml version="1.0" encoding="UTF-8" standalone="no"?>
<svg
   xmlns:dc="http://purl.org/dc/elements/1.1/"
   xmlns:cc="http://creativecommons.org/ns#"
   xmlns:rdf="http://www.w3.org/1999/02/22-rdf-syntax-ns#"
   xmlns:svg="http://www.w3.org/2000/svg"
   xmlns="http://www.w3.org/2000/svg"
   xmlns:sodipodi="http://sodipodi.sourceforge.net/DTD/sodipodi-0.dtd"
   xmlns:inkscape="http://www.inkscape.org/namespaces/inkscape"
   id="svg2"
   height="100"
   viewBox="0 0 165 100"
   width="165"
   version="1.1"
   sodipodi:docname="ALP.svg"
   inkscape:version="1.0 (4035a4f, 2020-05-01)">
  <defs
     id="defs60">
    <inkscape:path-effect
       message="Utilice la regla de relleno parimpar en el diálogo &lt;b&gt;Relleno y borde&lt;/b&gt; si el resultado no está aplanada después de convertir el recorte en trayectos."
       hide_clip="false"
       flatten="false"
       inverse="true"
       lpeversion="1"
       is_visible="true"
       id="path-effect506"
       effect="powerclip" />
    <clipPath
       id="clipPath489"
       clipPathUnits="userSpaceOnUse">
      <rect
         y="-31.435186"
         x="-18.874636"
         height="149.82907"
         width="11.38208"
         id="rect491"
         style="fill:#000000" />
    </clipPath>
    <clipPath
       id="clipPath502"
       clipPathUnits="userSpaceOnUse">
      <path
         d="M 169.22551,-19.763409 V 97.113544 H -6.741289 V 136.1448 H 169.22551 v 0.0859 h 11.35352 V -19.763409 Z"
         style="display:block;fill:#000000;stroke-width:1.95202"
         id="path504" />
    </clipPath>
  </defs>
  <sodipodi:namedview
     inkscape:document-rotation="0"
     pagecolor="#ffffff"
     bordercolor="#666666"
     borderopacity="1"
     objecttolerance="10"
     gridtolerance="10"
     guidetolerance="10"
     inkscape:pageopacity="0"
     inkscape:pageshadow="2"
     inkscape:window-width="1634"
     inkscape:window-height="844"
     id="namedview58"
     showgrid="false"
     inkscape:zoom="4"
     inkscape:cx="6.2420739"
     inkscape:cy="63.578961"
     inkscape:window-x="0"
     inkscape:window-y="25"
     inkscape:window-maximized="0"
     inkscape:current-layer="svg2" />
  <metadata
     id="metadata7">
    <rdf:RDF>
      <cc:Work
         rdf:about="">
        <dc:format>image/svg+xml</dc:format>
        <dc:type
           rdf:resource="http://purl.org/dc/dcmitype/StillImage" />
        <dc:title></dc:title>
      </cc:Work>
    </rdf:RDF>
  </metadata>
  <path
     id="path186"
     d="M 79.190191,95.674824 C 73.212766,95.175869 67.106192,93.284256 59.415504,89.549286 43.30106,81.723335 29.318404,68.057411 24.084394,55.01849 22.145013,50.187119 21.643973,47.227697 21.857181,41.86333 22.080282,36.250051 22.901235,32.825866 25.089495,28.381374 31.525552,15.309347 45.466991,7.6001673 67.724009,4.8058205 73.510836,4.0792901 92.869387,4.1907028 98.483154,4.9828462 c 9.963636,1.4059417 17.516246,3.5461147 24.041236,6.8125288 12.19986,6.107262 19.18476,15.624572 20.56285,28.01801 1.25646,11.299609 -3.54837,21.904015 -15.25768,33.674165 -9.35591,9.404527 -19.72344,15.98901 -31.09937,19.751419 -6.710542,2.219407 -11.749576,2.919198 -17.539999,2.435855 z M 80.805484,87.3313 c 0,-0.148644 -2.0628,-2.328485 -4.584,-4.844091 -2.5212,-2.515603 -4.527134,-4.630691 -4.457629,-4.700192 0.0695,-0.0695 0.740185,0.127771 1.490404,0.438381 0.835832,0.346058 3.099949,2.293395 5.846826,5.028781 l 4.482784,4.464029 1.17407,-0.373384 1.174069,-0.373384 -4.557119,-4.427974 c -3.216965,-3.125801 -4.493893,-4.592736 -4.342123,-4.988239 0.118245,-0.308143 0.34144,-0.560262 0.495989,-0.560262 0.154549,0 2.504123,2.227387 5.221273,4.949748 3.752191,3.759386 5.153978,4.948446 5.828893,4.944334 2.100733,-0.0128 1.77615,-0.529562 -3.880135,-6.17756 -4.295812,-4.289522 -5.542448,-5.731539 -5.254698,-6.078258 0.29148,-0.351213 1.471935,0.584187 5.192158,4.114301 2.6482,2.512873 4.866945,4.516824 4.930546,4.45322 0.0636,-0.0636 -0.275588,-1.078447 -0.753751,-2.255214 -0.707344,-1.740784 -1.477023,-2.721753 -4.129384,-5.262978 -2.740859,-2.626015 -3.177699,-3.1917 -2.743192,-3.55231 0.421064,-0.349449 0.783587,-0.200557 1.956826,0.80369 0.792009,0.677932 1.534047,1.2326 1.648977,1.2326 0.579106,0 0.144048,-2.675176 -0.556292,-3.420654 -0.714326,-0.760366 -0.726481,-0.857423 -0.182639,-1.458365 0.502492,-0.555241 0.530182,-0.941477 0.201349,-2.808303 -0.308521,-1.751486 -0.277985,-2.516861 0.160011,-4.011013 0.536719,-1.830919 0.532484,-1.86393 -0.50184,-3.912917 -1.358459,-2.69109 -0.583565,-2.818942 1.454928,-0.240056 1.797589,2.274123 2.220733,3.090948 3.545328,6.843811 0.867089,2.456648 1.354657,3.274537 2.680716,4.496853 0.891474,0.821732 2.885692,3.127384 4.431597,5.123671 1.545905,1.996289 2.872413,3.629614 2.947794,3.629614 0.07538,0 0.4661,-0.743859 0.86827,-1.653021 l 0.73121,-1.653018 1.14149,1.101227 c 1.11025,1.07109 4.56539,2.901514 5.49007,2.908465 0.66425,0.005 2.54571,-1.019988 2.54571,-1.386845 0,-0.171315 -1.22749,-0.822489 -2.72776,-1.447049 -1.68588,-0.701838 -3.51097,-1.81679 -4.77832,-2.919099 -2.00561,-1.744425 -2.07912,-1.774764 -3.353062,-1.383783 -0.71637,0.219861 -1.316128,0.365143 -1.33279,0.322844 -0.166308,-0.422115 -3.102244,-3.888112 -4.108174,-4.849876 -0.884435,-0.845604 -1.762248,-2.353227 -2.772188,-4.761173 -0.960576,-2.290255 -2.132344,-4.333702 -3.347432,-5.837594 -1.587052,-1.964265 -2.155902,-2.405443 -3.765008,-2.920015 -1.87565,-0.599811 -1.904476,-0.597919 -2.753481,0.18074 -0.471895,0.432795 -1.386315,1.90059 -2.032048,3.26177 -0.792356,1.670264 -1.624221,2.819709 -2.558701,3.535534 -1.190326,0.911811 -1.526782,1.502867 -2.397481,4.211694 l -1.012839,3.151038 -3.696708,2.9229 -3.696708,2.9229 -1.722976,-0.204064 c -1.704795,-0.201907 -1.743188,-0.184095 -3.639128,1.688295 -1.878567,1.855233 -1.939265,1.883998 -3.094225,1.466359 -1.582543,-0.572257 -2.540662,-0.536382 -3.081579,0.115386 -0.371489,0.447616 -0.333062,0.629983 0.221874,1.052974 1.333377,1.016346 12.157084,6.306251 12.402043,6.061291 0.138098,-0.138094 -0.797496,-1.32049 -2.079091,-2.627541 -1.851652,-1.888425 -2.27652,-2.520126 -2.068889,-3.076056 0.227862,-0.610103 0.778489,-0.194214 4.304226,3.25099 3.413502,3.335533 4.287578,4.005559 5.614269,4.303647 0.864233,0.194182 1.640619,0.283769 1.725302,0.199089 0.08468,-0.08468 -1.87617,-2.094539 -4.357447,-4.466348 -4.137144,-3.954622 -4.458025,-4.351419 -3.867885,-4.782938 0.5812,-0.424985 1.158266,0.04177 5.958022,4.819106 4.496779,4.475771 5.504894,5.311341 6.551931,5.430531 0.680591,0.07747 1.356761,0.166326 1.502602,0.197445 0.145841,0.03111 0.265165,-0.06504 0.265165,-0.213684 z M 66.26488,59.754772 c 0.183434,-0.342752 1.053737,-2.609913 1.934001,-5.038136 3.934441,-10.853208 7.127208,-17.492107 10.694484,-22.237631 2.010177,-2.67413 2.901885,-3.359167 3.608847,-2.772439 1.107325,0.918996 -0.28006,6.502124 -2.459876,9.899075 -1.403268,2.186802 -3.801724,3.801752 -5.646205,3.801752 -1.010661,0 -1.373916,0.166192 -1.545598,0.707107 -0.584003,1.840033 1.066154,3.889087 3.131985,3.889087 2.073866,0 4.25791,-1.217401 7.249177,-4.04074 1.456781,-1.374998 2.527447,-2.181799 2.379259,-1.792891 -1.824106,4.787226 1.230871,7.885712 5.024375,5.095939 0.816125,-0.600185 1.49033,-1.196807 1.498232,-1.325826 0.0079,-0.129018 0.496212,-0.791425 1.085133,-1.472016 l 1.070769,-1.237436 -0.192683,1.237436 c -0.269871,1.73313 0.470385,3.606524 1.64777,4.170085 0.535538,0.256337 1.116593,0.377758 1.29123,0.269825 0.174642,-0.107933 0.645448,-1.270392 1.046239,-2.583242 1.326038,-4.343622 5.413761,-10.771245 8.994171,-14.142648 3.43995,-3.239129 3.40969,-2.992805 -0.69559,5.661456 -3.24888,6.848904 -3.60058,8.622791 -2.07019,10.441558 1.6399,1.948906 3.72833,1.291445 6.42397,-2.022333 l 1.44818,-1.780261 0.24088,1.815836 c 0.42306,3.189196 1.51037,4.533685 3.66646,4.533685 1.08675,0 2.19501,-0.700428 4.40195,-2.782051 l 1.32583,-1.250543 v 1.866719 c 0,1.591807 0.1522,2.01891 1.03346,2.900178 1.80932,1.809323 4.3529,1.237716 7.49984,-1.685407 3.20477,-2.976824 4.40534,-5.465642 3.47507,-7.203866 -0.60012,-1.121351 -1.2444,-0.801803 -3.07641,1.525844 -2.00748,2.550591 -3.47365,3.546714 -4.00896,2.723701 -0.50588,-0.77776 -0.0217,-3.00217 1.34056,-6.158684 4.42156,-10.245376 4.59029,-10.877896 3.33669,-12.507656 -0.78791,-1.024338 -2.16792,-0.921881 -2.72617,0.2024 l -0.39146,0.788383 -0.97266,-1.015243 c -2.94254,-3.071353 -7.63392,-0.661567 -11.59924,5.958099 -2.39784,4.002925 -4.55633,7.027124 -5.94519,8.329622 -1.1209,1.051206 -1.12861,1.052783 -0.8648,0.176776 0.14641,-0.486135 1.51765,-3.529944 3.04719,-6.764017 2.98833,-6.318502 3.24826,-7.491343 2.08355,-9.401562 -1.47443,-2.418186 -3.47174,-1.887749 -7.58209,2.013612 -1.54223,1.463815 -2.68105,2.343284 -2.53071,1.954376 0.97075,-2.511291 0.41752,-4.799717 -1.31956,-5.458379 -1.02985,-0.3905 -1.56799,0.09596 -2.03831,1.842589 -1.061586,3.942436 -4.994899,10.872291 -7.985985,14.070003 -1.619918,1.731824 -2.241069,2.105498 -2.241069,1.348191 0,-0.217358 1.193243,-3.147109 2.65165,-6.510564 1.458408,-3.363455 2.651651,-6.5346 2.651651,-7.046989 0,-1.312689 -0.839283,-2.779859 -1.921524,-3.359056 -1.159029,-0.620294 -1.333204,-0.427132 -2.309697,2.561497 -0.737141,2.256066 -4.792933,9.025977 -5.177182,8.641727 -0.09744,-0.09744 0.08705,-1.189135 0.409988,-2.425986 1.313684,-5.031444 -0.07269,-9.496664 -2.948561,-9.496664 -1.148964,0 -1.565365,0.276843 -3.494607,2.3234 l -2.19022,2.323401 0.18762,-1.881459 c 0.158388,-1.588324 0.05622,-2.074254 -0.655736,-3.118896 -0.579544,-0.850352 -1.115439,-1.237437 -1.713153,-1.237437 -0.786289,0 -0.974747,0.322485 -1.962844,3.358758 -1.820566,5.594321 -4.583098,10.513442 -8.099261,14.421997 -2.816389,3.130691 -4.421256,3.484941 -4.41818,0.975253 0.0014,-1.259131 0.415316,-1.938265 4.21121,-6.911969 6.431178,-8.426675 9.872692,-15.951847 8.878521,-19.413662 -0.851229,-2.96408 -3.714856,-3.852914 -5.921089,-1.837833 -2.591384,2.366862 -4.559266,6.408829 -8.196259,16.834833 -2.064826,5.919141 -2.635129,7.163908 -4.414411,9.635117 -2.517522,3.49653 -3.879865,4.843176 -4.614459,4.561284 -1.109253,-0.42566 -0.556503,-2.620096 2.405337,-9.549274 0.906642,-2.121075 1.63942,-4.388115 1.63942,-5.071974 0,-2.281153 -1.818943,-4.274728 -3.003383,-3.29173 -0.272017,0.225754 -1.504685,2.426511 -2.739261,4.890569 -5.542112,11.061358 -11.010729,16.631422 -13.559607,13.811151 -0.538554,-0.595896 -0.673515,-1.286647 -0.673515,-3.447145 0,-4.681193 2.642152,-10.395063 6.580721,-14.23135 2.25798,-2.19934 4.198153,-3.328913 6.911968,-4.02416 2.565259,-0.657189 4.814364,-0.307644 6.917439,1.075073 1.589714,1.045196 2.250042,1.08934 2.735181,0.182849 1.431368,-2.674541 -1.787503,-6.089345 -6.236659,-6.616281 -3.719885,-0.440566 -8.612382,1.369391 -12.60604,4.663547 -6.609789,5.452061 -11.066738,15.993522 -9.787385,23.148871 0.978827,5.47452 4.128262,7.600037 8.392742,5.664159 1.484981,-0.67411 4.575235,-3.497669 6.786344,-6.200666 0.71167,-0.869989 1.083769,-1.142101 0.966932,-0.707106 -0.212628,0.791627 -0.3253,2.362631 -0.268882,3.749073 0.05676,1.394782 1.536152,2.791664 2.956567,2.791664 1.685543,0 4.162899,-1.697866 5.970326,-4.091783 l 1.531318,-2.028219 0.287207,1.452313 c 0.387389,1.958883 2.05638,3.405292 3.578138,3.100942 1.484079,-0.296819 3.568661,-1.809422 5.263239,-3.819091 0.783354,-0.929014 1.498162,-1.615237 1.588459,-1.524939 0.0903,0.0903 -0.837045,2.432465 -2.06076,5.204819 -2.683704,6.079986 -2.967292,7.766362 -1.582742,9.411806 1.064291,1.264838 2.436612,1.500644 2.966893,0.509803 z M 98.774616,21.440217 c 1.433134,-1.401154 1.724224,-2.536317 1.025888,-4.000731 -0.572434,-1.20041 -2.644469,-2.452658 -3.717829,-2.246898 -1.18772,0.227683 -1.997071,5.037356 -1.122617,6.671291 0.592697,1.107463 2.460689,0.899995 3.814558,-0.423662 z"
     style="fill:#231e46;fill-opacity:1;stroke-width:0.353553" />
  <path
     id="path188"
     d="m 117.21624,44.992068 c -1.38461,-1.668352 1.08266,-8.622468 4.21053,-11.867579 1.38482,-1.436726 1.89135,-1.737911 2.92276,-1.737911 0.79519,0 1.4778,0.254325 1.88232,0.701307 0.61142,0.675619 0.60803,0.765402 -0.0925,2.451138 -1.29178,3.10839 -3.68145,6.841864 -5.72287,8.941067 -2.12078,2.180817 -2.49743,2.358772 -3.20021,1.511978 z"
     style="fill:#231e46;fill-opacity:1;stroke-width:0.353553" />
  <path
     id="path190"
     d="m 64.995802,30.237529 c 3.440913,-8.646477 4.436446,-10.795912 5.352277,-11.555984 1.062053,-0.881426 0.632836,1.450568 -0.819905,4.454652 -1.395241,2.885181 -4.189708,7.543274 -4.525335,7.543274 -0.1006,0 -0.103767,-0.198874 -0.007,-0.441942 z"
     style="fill:#231e46;fill-opacity:1;stroke-width:0.353553" />
</svg>
