<?xml version="1.0" encoding="UTF-8" standalone="no"?>
<!-- Created with Inkscape (http://www.inkscape.org/) -->
<svg id="svg2" xmlns:rdf="http://www.w3.org/1999/02/22-rdf-syntax-ns#" xmlns="http://www.w3.org/2000/svg" height="100" width="165" version="1.1" xmlns:cc="http://creativecommons.org/ns#" xmlns:dc="http://purl.org/dc/elements/1.1/" viewBox="0 0 165 100">
 <metadata id="metadata7">
  <rdf:RDF>
   <cc:Work rdf:about="">
    <dc:format>image/svg+xml</dc:format>
    <dc:type rdf:resource="http://purl.org/dc/dcmitype/StillImage"/>
    <dc:title/>
   </cc:Work>
  </rdf:RDF>
 </metadata>
 <g id="layer1" transform="translate(0 -952.36)">
  <path id="path4810" d="m98.009 992.05c-0.97451 0.0447-1.9056 0.37917-2.6376 0.97766-1.0638 0.86968-1.1115 0.86911-1.1115-0.0103 0-0.59384-0.17669-0.71256-1.0601-0.71256h-1.0601v10.155 10.155h1.0601 1.0601v-3.3367-3.336l1.2379 0.8418c0.93563 0.6369 1.6714 0.8426 3.0174 0.8426 1.5698 0 1.9317-0.137 3.0583-1.1581 4.1876-3.7952 3.0704-12.609-1.7972-14.179-0.58222-0.18777-1.1827-0.26571-1.7674-0.23898zm0.18828 2.5164c0.6698 0.006 1.3228 0.30972 2.0794 0.93013 2.2503 1.8455 2.273 6.423 0.0431 8.6576-0.3842 0.3849-1.219 0.7709-1.8552 0.858-4.3303 0.5931-5.9041-7.5434-1.9176-9.9142 0.59816-0.35571 1.1294-0.53471 1.6503-0.53153z"/>
  <path id="path4806" d="m66.185 991.99c-4.8858-0.0289-7.7816 6.9138-4.988 12.432 0.81801 1.6158 1.7783 2.5044 3.2918 3.0449 4.0789 1.4566 7.7274-2.5787 7.4588-8.2485-0.1912-4.037-2.3012-6.9133-5.284-7.2034-0.16162-0.0158-0.3211-0.0244-0.4787-0.0249zm-0.18552 2.5417c0.96206-0.0391 1.938 0.43949 2.7115 1.4794 1.9319 2.5973 1.3261 7.2546-1.1225 8.6302-3.4968 1.9643-6.6975-3.054-4.7694-7.4773 0.72991-1.6745 1.9434-2.5817 3.1803-2.6322z"/>
  <path id="path4802" d="m50.224 1006.9c-4.0444-2.8724-4.1272-10.817-0.14483-13.887 2.7913-2.1523 6.0625-1.177 7.8324 2.335l0.88759 1.7612-1.1191 0.11171c-0.95218 0.095-1.2353-0.0481-1.8982-0.95964-2.577-3.5437-6.5762-1.2908-6.5762 3.7047 0 4.593 4.0864 6.8162 6.4682 3.519 0.79411-1.0993 1.0417-1.2397 2.0153-1.1422l1.1099 0.1111-0.88759 1.7738c-1.2492 2.4965-2.5289 3.3835-4.863 3.3711-1.3112-0.01-2.1395-0.2118-2.8246-0.6985z"/>
  <path id="path4800" d="m111.81 991.98c-0.25004 0.00028-0.53027 0.0244-0.86686 0.0654-6.1698 0.75211-7.5899 11.231-1.9965 14.733 1.7366 1.0872 3.7964 1.1271 5.3684 0.1039 1.1432-0.7439 1.1435-0.7449 1.1435-2.7087v-1.9649l-0.92042 1.0861c-1.1995 1.4159-2.5929 1.9369-3.908 1.4608-0.5512-0.1996-1.0021-0.503-1.0021-0.674 0-0.1711 1.4911-2.2767 3.3134-4.6788 3.7701-4.9697 3.7459-5.0129 1.0076-6.8141-0.91073-0.59904-1.3888-0.60902-2.139-0.60828zm-0.61232 2.6137c0.0568 0 0.1098 0.008 0.15846 0.0204 0.28857 0.0723 0.64379 0.14608 0.78956 0.16404 0.14577 0.0181 0.44392 0.18562 0.66257 0.37265 0.32078 0.27443-0.062 0.96168-1.9822 3.5579-1.3088 1.7696-2.4674 3.2171-2.5746 3.2171-0.10722 0-0.33186-0.3435-0.49913-0.7637-0.38173-0.959-0.16671-3.252 0.41687-4.4495 0.47617-0.97702 2.1762-2.1379 3.0285-2.1186z"/>
  <path id="path4796" d="m131.26 1006.9c-0.81123-0.8578-1.4881-2.4562-1.4881-3.5139 0-0.5971 0.16919-0.7303 0.92759-0.7303 0.64784 0 0.92759 0.1612 0.92759 0.5344 0 1.6376 2.1541 2.5748 3.0067 1.3082 0.96096-1.4276 0.38144-2.9994-1.399-3.7945-1.7845-0.79688-2.6027-1.7447-2.934-3.3988-0.54445-2.7183 1.0389-5.3343 3.2305-5.3372 1.8678-0.006 2.8529 0.98853 3.2746 3.2945 0.16971 0.92793 0.13012 0.97986-0.74664 0.97986-0.69512 0-1.034-0.22198-1.36-0.89076-0.55435-1.1375-1.8578-1.2315-2.2825-0.16472-0.51943 1.3049-0.0481 2.1096 1.9541 3.3363 2.1003 1.2868 2.5567 2.0943 2.5567 4.5235 0 2.9651-1.3001 4.5976-3.6615 4.5976-0.91961 0-1.5094-0.2188-2.0062-0.7442z"/>
  <path id="path4794" d="m144.26 991.97c-1.9668-0.0413-3.8872 1.1885-4.9356 3.4109-1.0096 2.1404-1.2269 3.7245-0.84532 6.17 0.36587 2.3451 1.374 4.1338 2.9804 5.289 1.573 1.1311 4.5484 1.0293 5.7825-0.1975 0.97467-0.9688 1.0872-0.9809 1.0872-0.1217 0 0.5083 0.23452 0.7101 0.9552 0.8232 0.5454 0.085 1.0029-0.016 1.0662-0.2382 0.0609-0.2135 0.0782-3.5901 0.0387-7.5041l-0.0724-7.1165-0.99384-0.11057c-0.85349-0.095-0.99386-0.007-0.99386 0.62352 0 0.40381-0.0298 0.73347-0.0663 0.73268-0.0364 0-0.65277-0.40166-1.3698-0.89077-0.83545-0.56982-1.7392-0.85122-2.6332-0.86997zm0.11871 2.5988c0.53907 0.0131 1.0873 0.20012 1.6321 0.56269 1.4891 0.99102 2.1267 2.2486 2.2582 4.4554 0.12846 2.1543-0.57687 3.831-2.0556 4.8874-3.9974 2.8558-7.7959-4.5207-4.395-8.5351 0.78889-0.93127 1.6618-1.392 2.5603-1.3704z"/>
  <path id="path4790" d="m73.649 999.88 0.07163-7.3934 0.86133-0.1117c0.7203-0.0933 0.86134 0.009 0.86134 0.62359 0 0.91437 0.31198 0.93709 0.8987 0.0655 0.98204-1.4589 3.7586-1.1875 4.9247 0.48134l0.61608 0.88165 0.85225-1.006c1.0063-1.1879 2.6516-1.6384 4.0863-1.1191 2.5475 0.9222 3.1984 3.0034 3.1984 10.226v4.7455h-1.0601-1.0601l-0.0019-4.5429c-0.0019-5.471-0.26516-7.0138-1.3228-7.7492-1.0988-0.76394-1.9806-0.66312-2.8351 0.32405l-0.74349 0.8591-0.08491 5.5544-0.08491 5.5545h-1.0414-1.0414l-0.000474-4.8993c-0.00026-3.9534-0.08986-5.1384-0.46379-6.1384-0.5793-1.5492-1.7659-2.1098-3.0049-1.4199-1.2898 0.71828-1.5663 2.0662-1.5663 7.6359v4.8216h-1.0655-1.0655l0.07163-7.3934z"/>
  <path id="path4788" d="m123.41 992.17c-1.0872-0.0204-1.7102 0.18267-2.4515 0.79872-0.98675 0.82007-0.99384 0.82029-0.99384 0.0839 0-0.6101-0.16457-0.74151-0.92759-0.74151h-0.92759v7.4824 7.4824h1.0601 1.0601v-4.6431c0-0.7758 0.006-1.4475 0.0155-2.0696 0.0385-0.957-0.0288-2.1429 0.0458-3.0204-0.0285-1.4469 0.41174-2.0826 1.5393-2.5772 1.2052-0.5227 2.101-0.66227 3.2154 0.28384 0.12896 0.20249 0.57572 0.8327 0.65627 1.0523 0.11997 0.39735 0.17691 0.81838 0.16785 1.2411 0.0924 3.1052 0.0425 6.5232 0.0425 9.7332h0.96127 1.0778l-0.0839-5.7899c-0.0783-5.3961-0.12658-6.0707-0.70177-7.1549-0.84209-1.5872-2.0222-2.1284-3.7556-2.1612z"/>
  <path id="path4786" d="m152.83 999.79v-7.4825h0.9276c0.77314 0 0.92758 0.12779 0.92758 0.76785 0 0.72628 0.0266 0.73534 0.49353 0.16732 0.27145-0.33028 0.8743-0.74728 1.3397-0.92673l0.84614-0.32626-0.0808 1.4951c-0.0667 1.2348-0.18365 1.5147-0.67181 1.608-0.32507 0.0621-0.83193 0.52462-1.1264 1.0279-0.48065 0.82155-0.53533 1.4376-0.53533 6.0333v5.1185h-1.0601-1.0601v-7.4824z"/>
  <path id="path4806-7" fill="#e75411" d="m28.622 978.18c-0.13615-0.004-0.27264-0.002-0.40888 0.005-3.5807-0.0849-6.5984 4.357-5.6058 8.5055 0.64447 3.7834 4.1567 6.0813 7.215 5.1172 3.5845-0.90707 5.3894-6.2226 3.7253-9.9964-0.8871-2.2466-2.8833-3.5764-4.9255-3.6322zm12.26 0.11453c-0.13615-0.004-0.27264-0.002-0.40888 0.005-3.5807-0.0849-6.5984 4.357-5.6058 8.5055 0.64448 3.7834 4.1567 6.0813 7.215 5.1172 3.5845-0.90703 5.3894-6.2226 3.7253-9.9964-0.8871-2.2466-2.8833-3.5764-4.9255-3.6322zm-25.041 14.864c-0.13616-0.004-0.27264-0.004-0.40889 0.005-3.5807-0.085-6.5984 4.357-5.6058 8.5056 0.64448 3.7834 4.1567 6.0812 7.215 5.1171 3.5845-0.907 5.3894-6.2226 3.7253-9.9964-0.8871-2.2466-2.8833-3.5764-4.9255-3.6322zm12.802 0c-0.13615-0.004-0.27264-0.004-0.40888 0.005-3.5807-0.085-6.5984 4.357-5.6058 8.5056 0.64448 3.7834 4.1567 6.0812 7.215 5.1171 3.5845-0.907 5.3894-6.2226 3.7253-9.9964-0.8871-2.2466-2.8833-3.5764-4.9255-3.6322zm0 14.826c-0.13615-0.01-0.27264-0.01-0.40888 0.01-3.5807-0.085-6.5984 4.357-5.6058 8.5056 0.64448 3.7834 4.1567 6.0813 7.215 5.1171 3.5845-0.907 5.3894-6.2226 3.7253-9.9963-0.8871-2.2467-2.8833-3.5764-4.9255-3.6323zm12.261 0.2148c-0.13615-0.01-0.27264-0.01-0.40889 0.01-3.5807-0.085-6.5984 4.357-5.6058 8.5055 0.64448 3.7835 4.1567 6.0813 7.215 5.1172 3.5845-0.9071 5.3894-6.2226 3.7253-9.9963-0.8871-2.2467-2.8833-3.5764-4.9255-3.6324z"/>
 </g>
</svg>
