<?xml version="1.0" encoding="UTF-8" standalone="no"?>
<!-- Created with Inkscape (http://www.inkscape.org/) -->
<svg id="svg2" xmlns:rdf="http://www.w3.org/1999/02/22-rdf-syntax-ns#" xmlns="http://www.w3.org/2000/svg" height="100" width="165" version="1.1" xmlns:cc="http://creativecommons.org/ns#" xmlns:dc="http://purl.org/dc/elements/1.1/" viewBox="0 0 165 100">
 <metadata id="metadata7">
  <rdf:RDF>
   <cc:Work rdf:about="">
    <dc:format>image/svg+xml</dc:format>
    <dc:type rdf:resource="http://purl.org/dc/dcmitype/StillImage"/>
    <dc:title/>
   </cc:Work>
  </rdf:RDF>
 </metadata>
 <g id="layer1" transform="translate(0 -952.36)">
  <path id="rect3058" fill="#2b539e" d="m0.060567 973.27-0.07774 54.907 165.25 0.19 0.0778-54.907-165.25-0.19016zm19.7 14.34c3.1821 0.004 6.1645 1.9221 8.1677 5.2694l0.21782 0.42224-3.4058 3.3434-0.24906-0.39417c-1.0974-1.8616-2.9566-2.5349-4.3336-2.5365-2.8601 0-5.0908 3.3598-5.0969 7.6733-0.0061 4.3117 2.2151 7.7098 5.0751 7.7131 1.4492 0 3.4661-0.6659 4.3407-2.4986l0.2191-0.4778 3.3963 3.3794-0.25018 0.3934c-1.933 3.3021-4.9599 5.2825-8.1202 5.2789-5.7169-0.01-10.351-6.1988-10.34-13.795 0.01076-7.5964 4.662-13.778 10.379-13.771zm23.745 0.0273c5.9623 0.007 10.819 6.199 10.808 13.796-0.01075 7.596-4.8846 13.777-10.847 13.77-5.9712-0.01-10.819-6.1994-10.808-13.796 0.01075-7.5963 4.8757-13.777 10.847-13.77zm28.426 0.0327c0.88653 0.00091 1.7471 0.19892 1.7471 0.19892l-0.01266 8.9448c-1.4063-2.3611-3.7745-1.8519-3.9602-1.8047-1.5842 0.35447-2.8114 2.213-2.8145 4.3848l-0.02167 15.302-5.3981-0.01 0.03752-26.497 0.68559 0.61964c0.87843 0.68525 1.8948 1.071 2.994 1.0723 0.8809 0.00089 1.7165-0.24421 2.466-0.70038l0.49972-0.337c1.2034-0.76871 2.4902-1.1894 3.7772-1.177zm18.129 0.0209c5.9679 0.007 10.787 6.199 10.777 13.795-0.0108 7.5961-4.8477 13.777-10.816 13.77-5.9702-0.01-10.819-6.1993-10.808-13.795 0.01075-7.5963 4.8767-13.777 10.847-13.77zm28.956 0.0333c0.3304-0.0105 0.62775-0.002 0.90485 0.0291 4.8899 0.47124 8.2609 5.5392 8.2508 12.639l-0.0204 14.374-5.4293-0.01 0.0202-14.233c0.006-4.5479-2.1543-6.5565-4.2967-6.559-2.2287 0-4.7149 2.3367-4.7194 5.4797l-0.0217 15.302-5.4293-0.01 0.0375-26.497 0.71674 0.64782c0.87584 0.6659 1.8768 1.0429 2.9628 1.0441 0.87303 0.00089 1.8714-0.27499 2.6221-0.72828 0 0 1.6602-0.86384 2.2794-1.0944-0.10619 0.0414 0.28099-0.11215 0.28099-0.11215 0.71807-0.20982 1.2732-0.25594 1.8414-0.27918zm25.93 0.0297 0.0624 0.00008 0.0311 0.00004c0.16688 0.00019 0.33271 0.0187 0.49921 0.0286 0.56733 0.037 1.5909 0.33936 1.5909 0.33936 0.11918 0.0441 0.52499 0.20496 0.56133 0.22567 0.27247 0.12115 1.1432 0.60092 1.3096 0.67661 0.20608 0.12674 0.34291 0.22539 0.34291 0.22539 0.74713 0.45501 1.7786 0.73341 2.6512 0.7344 1.0819 0.0009 2.0914-0.37336 2.9657-1.0373l0.71858-0.64618-0.0687 26.497c-1.0188-1.1196-2.3435-1.7749-3.773-1.7765-0.83777 0-1.625 0.2371-2.3411 0.6443l-0.74958 0.5053c-1.2071 0.7426-2.4768 1.1505-3.8396 1.149-5.4219-0.01-9.7329-6.0633-9.8094-13.794 0.0108-7.5964 4.4415-13.778 9.8484-13.772zm-101.45 5.9872c-2.8407 0-5.1533 3.4328-5.1593 7.6732-0.006 4.2378 2.2968 7.71 5.1375 7.7131 2.8546 0 5.1846-3.4635 5.1906-7.7012 0.006-4.2403-2.3142-7.6817-5.1688-7.6851zm46.555 0.0531c-2.8385 0-5.1533 3.4329-5.1593 7.6732-0.006 4.2378 2.2991 7.7099 5.1376 7.7131 2.8557 0 5.1846-3.4636 5.1906-7.7011 0.006-4.2405-2.3131-7.6819-5.1688-7.6852zm55.416 0.0639c-2.5763 0-4.6853 3.4334-4.6913 7.6737-0.006 4.2377 2.0932 7.7097 4.6695 7.7126 2.6041 0 4.7165-3.4641 4.7225-7.7018 0.006-4.2403-2.0967-7.6814-4.7008-7.6845z"/>
 </g>
</svg>
