<?xml version="1.0" encoding="UTF-8" standalone="no"?>
<!-- Created with Inkscape (http://www.inkscape.org/) -->
<svg id="svg2" xmlns:rdf="http://www.w3.org/1999/02/22-rdf-syntax-ns#" xmlns="http://www.w3.org/2000/svg" height="100" width="165" version="1.1" xmlns:cc="http://creativecommons.org/ns#" xmlns:dc="http://purl.org/dc/elements/1.1/" viewBox="0 0 165 100">
 <metadata id="metadata7">
  <rdf:RDF>
   <cc:Work rdf:about="">
    <dc:format>image/svg+xml</dc:format>
    <dc:type rdf:resource="http://purl.org/dc/dcmitype/StillImage"/>
    <dc:title/>
   </cc:Work>
  </rdf:RDF>
 </metadata>
 <g id="layer1" transform="translate(0 -952.36)">
  <path id="rect3046" d="m35.634 977.52-27.614 14.75c-0.48055 0.65018-0.47077 1.3931-0.5198 2.0938v5.7812c-0.012757 0.1696-0.013052 0.3407 0 0.5-0.034662 0.3682 0.14199 1.0073 0.22741 1.3125 0.052862 0.1437 0.23665 0.2276 0.32487 0.3125l27.388 14.9 24.56-14.8v-0.094c-14.56-0.396-26.242 0.4242-40.788 0.094l-5.4971-0.088c-0.7635-0.012-1.8948-0.8432-1.8948-1.5777l0.000001-6.9642c0-0.59679 1.0472-1.3932 1.5933-1.6036 0 0 2.3746 0.11429 2.5112 0.11439l3.0427 0.00001c14.195-0.0704 26.798 0.057 41.032 0.057v-0.0937z"/>
  <path id="rect3211-2" d="m8.5609 998.58c-0.026581 0.5178 0.043409 1.0405 0.23339 1.3879 0.19099 0.34896 0.43707 0.40896 0.6481 0.22336-0.01575-0.03-0.03497-0.064-0.0511-0.093l-0.83039-1.5179z"/>
  <path id="path3246" fill="#f00" d="m114.19 968.63c-0.46593 0.017-0.93001 0.0513-1.4001 0.0993-6.6457 0.67734-11.626 4.3127-12.436 8.6329h0.32944c0.89352-3.218 5.6659-5.8929 12.107-6.4003 0.92529-0.0729 1.8963-0.069 2.8003-0.0495 6.3275 0.13638 11.888 2.4146 13.425 5.7553l0.24694 0.69461h0.32946c-0.0162-0.0857-0.0633-0.16221-0.0821-0.24807l-0.24694-0.84346c-1.6731-4.7061-8.0832-7.8956-15.072-7.6406z"/>
  <path id="rect3254" fill="#366891" d="m114.71 963.6c-0.0513 0.0116-0.10444 0.0299-0.15625 0.0625-0.88328 0.5564-1.4764 4.0126-1.3438 7.7188 0.0166 0.46327 0.0256 0.92032 0.0625 1.3438l1.4688 52.719 1.625-53.375c0.0161-0.26417 0.0228-0.53864 0.0312-0.8125l0.0312-0.5c0.001-0.0921-0.00026-0.18849 0-0.28125 0.001-0.361-0.0181-0.7252-0.0312-1.0938l-0.0312-0.59375c-0.18437-3.2052-0.8861-5.3611-1.6562-5.1875zm0.0937 2.6562c0.30805 0.085 0.58144 1.5448 0.65625 3.625l0.0312 0.40625c0.0576 2.5771-0.20974 4.9568-0.59375 5.3438-0.38401 0.3869-0.75485-1.3916-0.8125-3.9688-0.0577-2.5771 0.20974-4.9568 0.59375-5.3438 0.0451-0.0454 0.081-0.0746 0.125-0.0625z"/>
  <path id="path4100" d="m63.721 65.345 0.88388-0.67905v-8.3489-8.3489l-0.88388-0.67905-0.88388-0.67905 3.2704-0.0079 3.2704-0.0079v2.1213c0 1.1667 0.11932 2.1127 0.26516 2.1021 0.14584-0.01056 0.74246-0.76273 1.3258-1.6715 2.4962-3.8886 5.8336-4.0963 5.8336-0.36305 0 2.4244-1.8716 3.3434-3.3907 1.6649-0.83343-0.92093-1.7274-0.84212-2.5679 0.22637-1.0571 1.3438-1.4661 3.9108-1.4661 9.2006v4.7608l1.149 0.70059 1.149 0.70059-4.4194-0.0065-4.4194-0.0065 0.88388-0.67905z" transform="translate(0 952.36)"/>
  <path id="path4102" d="m79.791 74.364c-1.5475-1.5475-0.83441-4.789 1.0535-4.789 1.0787 0 1.532 0.59843 1.8207 2.404 0.47006 2.9396 2.0528 1.5309 3.4955-3.1111l0.60432-1.9445-3.081-8.3085c-3.3547-9.0467-4.1714-10.892-4.9536-11.192-1.4225-0.54587-0.09182-0.8265 3.8167-0.8049 3.2802 0.01812 4.1455 0.11369 3.5662 0.39389-0.42064 0.20348-0.84321 0.66978-0.93904 1.0362-0.15346 0.58683 1.9358 7.15 3.3637 10.567l0.51715 1.2374 1.2867-3.8891c2.2292-6.7377 2.3163-7.929 0.64613-8.8366-0.8695-0.47248-0.74986-0.505 1.9005-0.51662l2.8284-0.0124-0.97713 0.79374c-0.82628 0.6712-1.5772 2.613-4.8642 12.578-4.2166 12.783-4.2458 12.858-5.5817 14.29-1.2167 1.3045-3.2556 1.3518-4.5029 0.10446z" transform="translate(0 952.36)"/>
  <path id="path4104" d="m98.026 63.407-0.01124-3.5166 0.92044 1.8471c1.082 2.1714 2.7788 3.5951 4.2846 3.5951 1.3549 0 2.0075-0.77735 2.0075-2.3914 0-1.1386-0.32375-1.5671-3.2477-4.298-1.9772-1.8466-3.4571-3.5475-3.783-4.3478-1.9117-4.6937 1.8621-9.6319 6.0299-7.8904 1.6992 0.70998 2.5941 0.68646 2.8871-0.07586 0.3855-1.0031 0.72792 0.74364 0.74507 3.8007l0.0149 2.6516-0.80962-1.7794c-1.5142-3.3278-4.4441-4.7685-5.7243-2.8147-0.87521 1.3357-0.16475 2.5975 2.8814 5.1172 2.9736 2.4596 3.8115 3.5104 4.3456 5.4494 0.82724 3.0031-0.98599 6.7576-3.6955 7.6518-1.0046 0.33155-1.5675 0.30209-2.9656-0.15519-2.2015-0.72006-2.8183-0.71021-3.3987 0.0543-0.40072 0.52788-0.47132 0.10241-0.48092-2.8978z" transform="translate(0 952.36)"/>
  <path id="path4106" d="m123.16 65.899c-2.7057-1.4997-2.2272-5.7915 0.91998-8.2506 0.73656-0.57553 2.4101-1.6676 3.7189-2.4268l2.3797-1.3804 0.007-2.3388c0.008-2.8354-0.81036-4.2019-2.517-4.2019-2.211 0-3.113 1.4314-1.9069 3.026 1.7752 2.3471-1.2747 5.014-3.2859 2.8732-1.6458-1.7518-0.35016-4.8295 2.6431-6.2785 2.2721-1.0999 5.6748-1.1622 7.0585-0.12924 2.3431 1.7492 2.4179 2.027 2.6111 9.6972 0.0972 3.86 0.30334 7.1442 0.45802 7.2982 0.15469 0.15402 0.59221 0.08585 0.97228-0.15151 0.88427-0.55224 0.87459-0.26218-0.0338 1.0136-0.41985 0.58962-1.3057 1.192-2.1053 1.4316-1.1714 0.35097-1.5191 0.32272-2.2964-0.1866-0.50381-0.3301-1.1001-1.0293-1.325-1.5538-0.22498-0.52446-0.45104-1.0145-0.50236-1.089-0.0513-0.07449-0.68371 0.38293-1.4053 1.0165-1.3034 1.1444-3.2242 2.1356-4.0921 2.1116-0.24931-0.0069-0.83353-0.22328-1.2983-0.48086zm6.0053-3.2952c1.0221-0.60377 1.0268-0.62246 1.0268-4.0659 0-1.9026-0.10431-3.4593-0.23179-3.4593-0.64044 0-2.6871 1.9732-3.307 3.1884-0.89979 1.7637-0.89858 3.3344 0.003 4.2362 0.86332 0.86333 1.1949 0.87662 2.5087 0.10055z" transform="translate(0 952.36)"/>
  <path id="path4108" d="m139.2 65.631c1.5868-0.8679 1.591-0.90398 1.591-13.648 0-7.9232-0.1311-12.398-0.37666-12.857-0.20717-0.38709-0.72424-0.84385-1.149-1.015-0.52741-0.2125 0.32092-0.31831 2.6748-0.33361l3.4472-0.02241 0.004 12.286c0.002 6.7573 0.10455 12.895 0.22759 13.64 0.16222 0.9818 0.45266 1.4409 1.0568 1.6706 0.45819 0.1742 0.83307 0.40022 0.83307 0.50226s-2.0285 0.18069-4.5078 0.17478c-3.463-0.0083-4.3439-0.10039-3.8007-0.39751z" transform="translate(0 952.36)"/>
 </g>
</svg>
