<?xml version="1.0" encoding="UTF-8" standalone="no"?>
<!-- Created with Inkscape (http://www.inkscape.org/) -->
<svg id="svg2" xmlns:rdf="http://www.w3.org/1999/02/22-rdf-syntax-ns#" xmlns="http://www.w3.org/2000/svg" xmlns:osb="http://www.openswatchbook.org/uri/2009/osb" height="100" viewBox="0 0 165 100" width="165" version="1.1" xmlns:cc="http://creativecommons.org/ns#" xmlns:xlink="http://www.w3.org/1999/xlink" xmlns:dc="http://purl.org/dc/elements/1.1/">
 <defs id="defs4164">
  <linearGradient id="linearGradient4430" y2="63.161" gradientUnits="userSpaceOnUse" x2="45.58" y1="63.161" x1="8.6336">
   <stop id="stop4422" stop-color="#24968b" offset="0"/>
   <stop id="stop4424" stop-color="#24968b" stop-opacity="0" offset="1"/>
  </linearGradient>
  <linearGradient id="linearGradient7486-1-4" y2="151.03" gradientUnits="userSpaceOnUse" x2="20.23" gradientTransform="translate(12.225 -98.598)" y1="151.03" x1="-2.5753">
   <stop id="stop6344" stop-color="#3b4791" offset="0"/>
   <stop id="stop6346" stop-color="#3b4791" stop-opacity="0" offset="1"/>
  </linearGradient>
  <linearGradient id="linearGradient7484-9-9" y2="139.12" gradientUnits="userSpaceOnUse" x2="23.778" gradientTransform="translate(12.225 -98.598)" y1="139.12" x1="-2.8589">
   <stop id="stop6336" stop-color="#5b87c4" offset="0"/>
   <stop id="stop6338" stop-color="#5b87c4" stop-opacity="0" offset="1"/>
  </linearGradient>
  <linearGradient id="linearGradient7482-0-6" y2="132.11" gradientUnits="userSpaceOnUse" x2="23.908" gradientTransform="translate(12.225 -98.598)" y1="132.11" x1="-2.632">
   <stop id="stop6328" stop-color="#8ac4e9" offset="0"/>
   <stop id="stop6330" stop-color="#8ac4e9" stop-opacity="0" offset="1"/>
  </linearGradient>
 </defs>
 <metadata id="metadata7">
  <rdf:RDF>
   <cc:Work rdf:about="">
    <dc:format>image/svg+xml</dc:format>
    <dc:type rdf:resource="http://purl.org/dc/dcmitype/StillImage"/>
    <dc:title/>
   </cc:Work>
  </rdf:RDF>
 </metadata>
 <path id="path4206-5" fill="#9c9ea0" d="m68.412 80.482c-0.27063-0.01367-0.55332 0.06118-0.67383 0.23438-0.09314 0.13387-0.21709 0.75289-0.27539 1.375l-0.10547 1.1309-1.4922 0.04296c-2.4496 0.07141-3.2411 0.87216-3.4043 3.4395-0.15105 2.3769 0.52342 3.8843 1.9121 4.2715 0.36873 0.1028 1.0966 0.12985 1.6172 0.06055 0.52062-0.06934 1.3243-0.13172 1.7871-0.13672 0.46277-0.0054 0.96085-0.07941 1.1055-0.16601 0.19854-0.11893 0.26367-1.3197 0.26367-4.9004 0-2.6087-0.05871-4.8833-0.12891-5.0527-0.07591-0.18312-0.33484-0.28516-0.60547-0.29883zm46.066 0.0059c-0.0965-0.0078-0.2068-0.00048-0.33008 0.01563-0.47888 0.06257-0.51672 0.15645-0.57422 1.3613l-0.0625 1.293-1.5586 0.07227c-2.649 0.12383-3.4701 1.0518-3.4707 3.918-0.00046 2.383 0.54297 3.415 2.0274 3.8418 0.33059 0.0951 0.93296 0.11769 1.3379 0.05079 0.40493-0.06688 1.2361-0.12872 1.8476-0.13672 0.74656-0.0092 1.1765-0.10858 1.3106-0.30469 0.11114-0.16256 0.20112-2.3259 0.20312-4.8789 0.003-4.3429-0.0549-5.1779-0.73046-5.2324zm-8.2988 0.01563c-0.90539-0.1183-1.4074 0.98654-0.73242 1.6113 0.1818 0.16829 0.39907 0.30665 0.48437 0.30665 0.96541 0 1.1975-1.7939 0.24805-1.918zm-20.504 0.18164c-1.4304 0.05632-2.6639 0.7415-3.3301 1.9219-0.53595 0.94967-0.57852 1.1949-0.57422 3.293 0.0036 1.7758 0.08797 2.436 0.39062 3.0527 0.44413 0.90508 1.4859 1.789 2.3027 1.9551 0.30924 0.06288 0.65774 0.14399 0.77344 0.17969 0.384 0.11857 0.70495 0.09648 1.7812-0.11719 2.3083-0.45824 3.2939-2.2354 3.1152-5.6172-0.14571-2.7578-0.97248-4.0102-2.9766-4.5098-0.50668-0.12629-1.0056-0.17698-1.4824-0.1582zm-60.248 0.01562c-2.2823 0.03257-3.7655 0.92509-4.2109 2.5625-0.13275 0.48803-0.24219 1.7947-0.24219 2.9043 0 1.7561 0.0684 2.1427 0.52148 2.9844 0.55679 1.0343 1.3882 1.6218 2.6309 1.8574 0.93513 0.17734 3.8097-0.0049 4.1582-0.26368 0.18474-0.13718 0.26172-0.91034 0.26172-2.6016v-2.4062l-0.55859-0.1289c-0.87503-0.20331-1.123 0.30255-1.123 2.2852v1.6992l-0.61328 0.125c-0.65439 0.13304-1.9905-0.03013-2.5938-0.31836-0.75964-0.36299-1.001-1.2151-0.99805-3.5137 0.0019-1.3642 0.1027-2.3857 0.26562-2.6875 0.44972-0.83315 1.5113-1.1916 3.4121-1.1523 2.2378 0.0462 2.209 0.05386 2.209-0.48047 0-0.56553-0.25722-0.66835-2.0918-0.82618-0.35794-0.03079-0.7013-0.04371-1.0273-0.03906zm109.78 0.8125c-0.12799 0.005-0.27387 0.0498-0.4375 0.13086-0.2526 0.12514-0.41699 0.45465-0.45899 0.92383-0.0591 0.6615-0.12688 0.73486-0.73047 0.78906-0.68522 0.06153-0.98768 0.40908-0.7832 0.90235 0.0641 0.15454 0.41704 0.30889 0.7832 0.34179l0.66602 0.0586 0.10938 2.7266c0.0606 1.4993 0.18875 2.8791 0.28515 3.0664 0.0964 0.18731 0.47422 0.42257 0.83789 0.52344 0.69578 0.19298 2.0094 0.09181 2.3106-0.17773 0.0974-0.08739 0.14431-0.32074 0.10351-0.51953-0.0558-0.27213-0.29384-0.37678-0.96484-0.42188-1.0999-0.07384-1.1434-0.19193-1.0606-2.957 0.0606-2.0191 0.0685-2.0458 0.58789-2.0996 1.3305-0.13793 1.5-0.23042 1.4316-0.7793-0.0586-0.47031-0.16963-0.54035-1.0117-0.62695-0.94068-0.09675-0.94637-0.10259-1.0098-0.9082-0.052-0.66092-0.27424-0.98766-0.6582-0.97266zm-49.364 0.554c0.12793-0.0014 0.25758 0.0072 0.38867 0.02344 1.6545 0.20543 2.2637 1.236 2.2637 3.834 0 1.9592-0.30802 2.9117-1.0977 3.3906-1.2532 0.7601-2.9171 0.45502-3.625-0.66407-0.59173-0.93547-0.6294-4.4336-0.05859-5.4004 0.43547-0.73758 1.2334-1.1735 2.1289-1.1836zm-45.315 1.159c-1.7831 0.02257-2.7536 0.64304-2.7891 1.8008-0.03294 1.0758 0.41312 1.597 2.0371 2.377 2.2837 1.0968 2.6039 1.4595 1.8828 2.127-0.26709 0.24724-0.69336 0.3115-1.8398 0.2832-2.0073-0.04946-2.0195-0.04677-2.0195 0.3711 0 0.49526 0.38516 0.75541 1.2637 0.85351 1.3344 0.14903 1.4428 0.14579 2.5117-0.0664 1.3346-0.26495 1.9043-0.87386 1.9043-2.0332 0-1.0949-0.40166-1.5123-2.2949-2.3887-1.7428-0.80674-2.1456-1.2014-1.7168-1.6797 0.20888-0.233 0.67734-0.30859 1.9121-0.30859 1.7352 0 2.1238-0.21336 1.5996-0.87695-0.18146-0.22972-0.68145-0.36054-1.6387-0.43164-0.2875-0.02137-0.55778-0.03057-0.8125-0.02735zm16.039 0c-0.33331-0.01785-0.71709-0.01322-1.1523 0.01563-2.1444 0.14212-3.1252 1.3222-2.3379 2.8144 0.32225 0.61077 0.6771 0.87257 1.9512 1.4453 1.403 0.6307 2.125 1.1612 2.125 1.5625 0 0.07898-0.15638 0.28974-0.34766 0.4668-0.26708 0.24724-0.69532 0.31346-1.8418 0.28516-2.0422-0.05033-2.0176-0.05767-2.0176 0.48632 0 0.48665 0.13267 0.55492 1.4707 0.75 1.5881 0.23155 2.9416-0.04163 3.709-0.75195 0.38018-0.35193 0.49805-0.67635 0.49805-1.3574 0-1.1166-0.52632-1.6527-2.3867-2.4336-1.4619-0.6136-1.8892-0.97511-1.7812-1.5 0.06064-0.2947 0.35416-0.36537 1.8574-0.44727 1.7235-0.09396 1.7852-0.11442 1.7852-0.57227 0-0.45082-0.53131-0.71012-1.5312-0.76367zm85.502 0c-0.50602 0.0089-0.94633 0.11093-1.4863 0.33203-1.3469 0.55152-1.8026 1.4798-1.8086 3.6875-0.007 2.4212 0.56891 3.3352 2.3672 3.7578 0.67367 0.15833 3.2803 0.05739 3.8652-0.15039 0.18562-0.06594 0.28108-0.30875 0.24218-0.61914-0.0638-0.50907-0.0685-0.51141-1.6992-0.44141-1.9303 0.0829-2.7504-0.16997-3.1035-0.95899-0.46815-1.0462-0.27145-1.1371 2.5742-1.1973l2.5859-0.05469-0.043-1.1348c-0.0712-1.9117-1.1105-3.0346-2.9609-3.1992-0.18947-0.01686-0.36453-0.02444-0.5332-0.02149zm-40.027 0.002c-0.31383-0.01474-0.66973-0.0038-1.0644 0.0332-1.9944 0.18694-2.7521 1.017-2.9531 3.2363-0.22439 2.4775 0.60666 4.1151 2.2852 4.5 0.66851 0.1533 2.1623 0.08518 2.9746-0.13477 0.24632-0.06669 0.35841-0.25055 0.31641-0.52344-0.0581-0.37769-0.22548-0.43223-1.6094-0.51953-2.0913-0.13186-2.3477-0.41725-2.3477-2.623 0-2.2541 0.30384-2.5959 2.375-2.6738 1.4504-0.05456 1.5176-0.07764 1.5176-0.53125 0-0.44892-0.55266-0.71946-1.4941-0.76367zm-7.6582 0.01171c-1.0078 0.07199-1.7141 0.4136-2.252 1.0664-0.49253 0.59775-0.576 0.90815-0.6543 2.4238-0.06795 1.3156-0.0032 1.947 0.26367 2.5938 0.40745 0.98759 0.66115 1.2191 1.748 1.5898 0.92389 0.31511 2.9465 0.18436 3.3965-0.21875 0.16037-0.14372 0.23406-0.39941 0.16406-0.56836-0.0976-0.23548-0.44128-0.30664-1.4727-0.30664-1.7408 0-2.3438-0.39615-2.5508-1.6738-0.17653-1.0896 0.02767-2.6433 0.41211-3.1309 0.21648-0.27454 0.65601-0.37802 1.9258-0.45312 1.246-0.074 1.665-0.169 1.706-0.389 0.106-0.566-0.315-0.811-1.568-0.916-0.408-0.034-0.777-0.042-1.113-0.018zm-60.816 0.002c-0.371-0.02275-0.77608-0.01997-1.207 0.01172-1.4074 0.10349-2.0759 0.46541-1.8535 1.002 0.10201 0.24607 0.47959 0.30664 1.8965 0.30664 1.9631 0 2.3202 0.17835 2.2051 1.1074-0.06609 0.53356-0.1087 0.55143-1.6562 0.66797-2.3782 0.1791-3.0292 0.72385-3 2.5156 0.01915 1.175 0.46954 1.8657 1.3809 2.1191 0.3754 0.1044 1.1083 0.13144 1.6289 0.06054 0.52062-0.07093 1.4017-0.13076 1.959-0.13476 0.76272-0.0052 1.0674-0.09722 1.2324-0.36914 0.13391-0.2213 0.18988-1.4307 0.14258-3.125-0.06183-2.2133-0.15066-2.8697-0.44336-3.2832-0.35706-0.50444-1.1721-0.81066-2.2852-0.8789zm87.023 0.01172c-0.26721-0.01982-0.54773-0.01619-0.83789 0.01562-1.2205 0.13381-1.9431 0.562-2.5449 1.5078-0.33661 0.52904-0.41992 1.0118-0.41992 2.4141 0 2.5262 0.5265 3.3988 2.3086 3.8203 0.3495 0.0826 1.3452 0.10357 2.2129 0.04687 1.7414-0.11375 2.3624-0.42696 1.9746-0.99609-0.18806-0.276-0.56712-0.33394-2.1719-0.33594-1.8-0.0028-1.9728-0.03765-2.3555-0.47461-0.23375-0.26688-0.38531-0.6906-0.34961-0.97461l0.0625-0.50195 2.5254-0.09766 2.5234-0.0957 0.0645-0.9375c0.13079-1.8963-1.1217-3.2519-2.9922-3.3906zm8.2617 0.0039c-0.30438 0.02845-0.61196 0.09205-0.9082 0.18946-0.60264 0.19816-0.98551 0.21899-1.3887 0.07812-1.2059-0.42135-1.25-0.29466-1.25 3.627 0 1.9668 0.068 3.6386 0.15039 3.7148 0.0824 0.0761 0.39004 0.11373 0.6836 0.08203l0.53515-0.0586 0.10352-2.8555c0.0579-1.5711 0.15304-2.8952 0.21094-2.9414 0.2444-0.19503 1.5793-0.53125 2.1094-0.53125 1.0004 0 1.1415 0.39392 1.2559 3.4863l0.10547 2.8418h0.63086 0.63086v-3.2558-3.2578l-0.55273-0.51172c-0.51223-0.47378-1.4033-0.69277-2.3164-0.60742zm-80.778 0.042c-2.4563-0.0059-3.4172 1.1199-3.4102 3.9883 0.0061 2.3237 0.6178 3.3011 2.3027 3.6816 0.9708 0.21926 3.6524 0.06674 4.0488-0.23047 0.15025-0.1126 0.24348-0.3858 0.20898-0.60742-0.05853-0.37587-0.20064-0.40325-2.1309-0.40625-1.933-0.0033-2.0965-0.03395-2.4824-0.47461-0.23376-0.26689-0.38531-0.69061-0.34961-0.97461l0.0625-0.50195 2.5566-0.05469c2.9211-0.0623 2.8876-0.03996 2.5996-1.6777-0.35223-2.0034-1.2633-2.7372-3.4062-2.7422zm26.084 0c-2.4563-0.0059-3.4201 1.1199-3.4121 3.9883 0.0061 2.3227 0.61589 3.2989 2.3027 3.6856 0.97809 0.2242 3.6562 0.07306 4.0488-0.22852 0.15015-0.11538 0.24544-0.39166 0.21094-0.61328-0.05853-0.37587-0.20064-0.40325-2.1309-0.40625-1.933-0.0033-2.0965-0.03395-2.4824-0.47461-0.23376-0.26689-0.38531-0.69061-0.34961-0.97461l0.0625-0.50195 2.5645-0.05469c2.9423-0.06262 2.9429-0.06316 2.5957-1.7578-0.4-1.955-1.299-2.657-3.41-2.662zm31.717 0.10352c-0.68973 0.01472-0.75782 0.61464-0.75782 3.6289 0 1.8347 0.094 3.3623 0.21875 3.5781 0.11976 0.20714 0.37974 0.377 0.57813 0.375 0.8632-0.0071 0.89769-0.17315 0.83789-3.9062-0.0573-3.5801-0.0572-3.5888-0.54102-3.6524-0.12553-0.01647-0.2374-0.02554-0.33593-0.02343zm14.449 1.1543c0.84421 0.05491 1.6211 0.60493 1.6211 1.4297v0.52149h-1.7871c-1.7755 0-1.7891-0.0039-1.7891-0.4961 0-0.2726 0.23361-0.70979 0.51758-0.97265 0.40071-0.37093 0.93097-0.51537 1.4375-0.48243zm21.916 0.0039c0.9249 0 1.8559 0.75167 1.7539 1.416-0.0619 0.40286-0.19035 0.43793-1.7852 0.49023-0.94485 0.03096-1.7718-0.02405-1.8379-0.12305-0.19318-0.28934 0.30516-1.384 0.72461-1.5918 0.21161-0.10481 0.72674-0.19141 1.1445-0.19141zm-94.309 0.01367c0.39993-0.0313 0.81684 0.00074 1.1172 0.10742 0.43691 0.1552 1.0214 1.1948 0.87305 1.5527-0.08474 0.20441-0.54212 0.27344-1.791 0.27344-0.92236 0-1.7326-0.08338-1.8008-0.18555-0.21398-0.32049 0.12912-1.1746 0.5918-1.4746 0.22836-0.14807 0.60984-0.24214 1.0098-0.27344zm26.084 0c0.39993-0.0313 0.81684 0.00073 1.1172 0.10742 0.43691 0.1552 1.0214 1.1948 0.87305 1.5527-0.08475 0.2044-0.54212 0.27344-1.791 0.27344-0.92235 0-1.7326-0.08338-1.8008-0.18555-0.21398-0.3205 0.12717-1.1746 0.58984-1.4746 0.22837-0.14807 0.61179-0.24214 1.0117-0.27344zm37.391 0.0078c0.18583-0.003 0.41846 0.0063 0.71679 0.01954l1.3027 0.05664 0.0606 2.3887 0.0586 2.3867-0.54688 0.19336c-0.65751 0.23123-1.5082 0.22845-2.1367-0.0059-0.93785-0.34961-1.2003-3.4432-0.38868-4.5898 0.2376-0.33566 0.37611-0.44027 0.9336-0.44922zm-45.805 0.0039c0.17713-0.0018 0.37714 0.0046 0.60156 0.01563l1.1562 0.05664 0.05859 2.3887 0.06055 2.3867-0.54687 0.19336c-0.94645 0.3331-1.7622 0.22636-2.3359-0.30469-0.51223-0.47413-0.53414-0.58075-0.46484-2.3535 0.07666-1.9616 0.23079-2.3703 1.4707-2.3828zm-32.062 2.8965h1.1113v0.97851c0 0.87109-0.06062 0.9989-0.54102 1.168-0.74547 0.26233-2.0589 0.23689-2.3633-0.04492-0.13883-0.12851-0.25195-0.5179-0.25195-0.86524 0-0.85699 0.6289-1.2363 2.0449-1.2363z"/>
 <path id="path4206-6" d="m106.01 25.727-0.0547 5.3535c-0.0293 2.9451-0.0944 5.4571-0.14453 5.582-0.0666 0.16625-0.4869 0.13297-1.5703-0.125-5.9492-1.4165-11.985 0.0896-15.229 3.8008-1.2919 1.4782-2.5309 3.8165-3.1406 5.9297-0.42178 1.4617-0.47566 2.1115-0.47266 5.5508 0.0029 3.3848 0.06472 4.1192 0.47461 5.6191 1.3132 4.8056 4.5973 7.8736 9.0801 8.4844 4.0398 0.55038 7.3907-0.31737 10.061-2.6055 1.4233-1.2198 1.4073-1.2247 1.623 0.4707 0.0746 0.58634 0.235 1.1779 0.35743 1.3144 0.25686 0.28653 3.6724 0.34965 4.1387 0.0762 0.21267-0.1247 0.24917-0.41225 0.14062-1.1172-0.0803-0.52185-0.21011-9.3615-0.28711-19.643l-0.13867-18.691h-2.4199zm-44.113 0.90625c-4.958 0.12283-9.8057 1.6743-13.248 4.6211-3.6285 3.1061-5.5414 7.1328-6.0879 12.812-0.58209 6.0498 1.0337 12.286 4.1152 15.875 2.5568 2.9776 6.3747 4.9183 11.252 5.7188 1.1055 0.18141 2.8184 0.23548 5.5898 0.17968 4.3172-0.0869 6.7126-0.42265 9.875-1.3887 1.8423-0.56277 4.5475-1.7437 4.7949-2.0938 0.08496-0.12023 0.15425-3.9985 0.15625-8.6172 0.0026-6.867-0.04804-8.4385-0.2832-8.6191-0.20595-0.15818-2.5489-0.20652-8.2559-0.16992l-7.9688 0.0508-0.0625 1.8223c-0.03922 1.1751 0.02593 1.9159 0.18359 2.0918 0.19684 0.21956 1.2203 0.27343 5.2676 0.27343h5.0234v5.4277 5.4277l-1.043 0.41602c-2.4153 0.96182-4.511 1.2842-8.3184 1.2832-3.451-0.00096-3.6386-0.0211-5.373-0.59375-5.4733-1.8072-8.1734-5.7033-8.834-12.746-0.9954-10.612 4.4402-17.52 13.787-17.52 3.6779 0 7.2364 1.2266 10.137 3.4922 0.83212 0.65001 1.5967 1.1816 1.6992 1.1816 0.2262 0 3.7642-2.2698 3.9336-2.5234 0.16955-0.25395-1.0028-1.4373-2.4316-2.4551-3.8823-2.7654-8.9502-4.0701-13.908-3.9473zm73.316 0.0137c-4.1917 0.11241-7.9293 1.4969-10.865 4.043-3.1506 2.7322-4.9518 6.229-5.7324 11.129-0.46943 2.9467-0.31466 8.5856 0.30664 11.168 1.7662 7.3407 5.7418 11.387 12.434 12.652 1.6806 0.31786 5.588 0.36775 7.2715 0.0918 7.4685-1.2242 12.141-6.1803 13.436-14.25 0.42882-2.6732 0.4286-7.7441 0-10.445-1.3889-8.7534-6.7473-13.873-15.027-14.359-0.6163-0.0362-1.2234-0.0454-1.8223-0.0293zm0.49804 4.2422c2.7802 0.004 4.9931 0.84141 6.9238 2.6191 3.2288 2.9729 4.9558 9.1483 4.334 15.5-0.30474 3.1127-0.87631 5.2534-1.959 7.3379-1.5203 2.927-4.1342 4.8104-7.3476 5.293-5.1746 0.77714-9.695-1.2291-11.898-5.2793-1.6467-3.0269-2.4631-8.124-1.9941-12.459 0.90651-8.3792 5.1689-13.023 11.941-13.012zm-35.908 9.0508c2.1972 0 2.8804 0.0757 4.1504 0.46094 0.83588 0.25353 1.6224 0.57669 1.748 0.7168 0.15903 0.17685 0.20751 2.715 0.16211 8.3008l-0.0644 8.0469-0.58399 1.1016c-0.70348 1.326-1.8998 2.3711-3.4805 3.041-1.4757 0.62539-4.6183 0.79516-6.168 0.33399-2.1499-0.63979-3.9516-2.8581-4.7422-5.8398-0.55555-2.0954-0.50223-7.472 0.09375-9.4746 0.90696-3.0475 2.5755-5.1128 4.9473-6.127 1.2206-0.52196 1.4854-0.56055 3.9375-0.56055z" fill="#0284c9"/>
 <path id="path4206-55" d="m18.188 7.5898c-0.19733-0.00095-1.6653 1.7373-2.2324 2.6426-0.07189 0.11477 0.01336 0.46375 0.19141 0.77735 2.4816 4.371 3.0284 8.7474 1.5859 12.688-0.86146 2.3532-1.5014 3.4906-3.8164 6.7715-3.0218 4.2827-3.8502 6.196-4.7637 11.002-0.43218 2.2739-0.48389 6.9259-0.099609 8.957 0.41611 2.1994 1.716 5.6838 3.0195 8.0898 3.9051 7.2077 9.5452 12.171 16.037 14.113 1.3524 0.40464 1.8835 0.44214 6.625 0.46094 5.7068 0.0226 6.023 0.0817 7.8633 1.4551 0.44976 0.33565 0.84465 0.60937 0.87695 0.60937 0.31272 0 1.9608-0.80163 2.0273-0.98633 0.34483-0.95761-0.95537-5.5455-2.084-7.3555-2.6529-4.2545-7.1321-7.3402-12.104-8.3379-0.89663-0.17994-1.6289-0.38513-1.6289-0.45703s0.71799-1.7875 1.5957-3.8125c3.0976-7.1466 4.2366-12.444 4.0293-18.73-0.29-8.7929-3.6351-15.843-10.848-22.859-1.922-1.873-5.86-5.0272-6.274-5.0292z" fill="#90b74b"/>
 <path id="path4184-3" d="m9.5108 51.65c0.0113 0.04064 0.0156 0.06554 0.0273 0.10742 0.17232 0.6137 0.36144 1.203 0.55859 1.7832 0.095 0.29362 0.19995 0.5938 0.3125 0.89258 0.042 0.11238 0.0877 0.22253 0.13086 0.33398 0.10676 0.26994 0.20796 0.53807 0.33008 0.81641 0.61375 1.4544 1.3413 2.8486 2.2188 4.2559 3.6993 6.1942 8.7242 10.473 14.52 12.336 1.6555 0.53214 1.764 0.53988 6.7305 0.54688 5.692 0.0078 6.5382 0.15278 8.0215 1.375 0.86294 0.71105 1.3722 0.7514 2.3242 0.18164 0.41054-0.24569 0.4465-0.3922 0.33984-1.3984-0.55912-5.2745-4.3529-10.244-9.6328-12.617-1.8153-0.78207-3.7954-1.4038-5.6465-1.498-0.69637 0.0145-1.6681-0.05489-3.2617-0.15625-1.6054-0.10208-3.8138-0.33663-4.9062-0.52148-4.069-0.69-8.35-2.638-10.785-4.906-0.563-0.524-0.9725-1.012-1.2813-1.533z" fill="url(#linearGradient4430)"/>
 <path id="path4206-55-3" d="m18.012 6.9668c-0.19733-0.0009593-1.6653 1.7543-2.2324 2.6686-0.07189 0.11589 0.01336 0.4683 0.19141 0.78499 2.4816 4.414 3.0284 8.8335 1.5859 12.812-0.86146 2.3763-1.5014 3.5249-3.8164 6.8381-3.0218 4.3249-3.8502 6.257-4.7637 11.11-0.43218 2.2963-0.48389 6.9941-0.099609 9.0452 0.055793 0.29779 0.1626 0.66522 0.24805 1.0039 0.28048 0.41111 0.61173 0.81261 1.0605 1.2347 2.4352 2.2902 6.7162 4.2572 10.785 4.9526 1.0924 0.18668 3.3009 0.42354 4.9062 0.52662 1.5936 0.10235 2.5653 0.17243 3.2617 0.15779 0.44734 0.023 0.90306 0.07977 1.3613 0.15976v-0.05918c-0.55012-0.13256-0.99023-0.25721-0.99023-0.30966 0-0.07261 0.71799-1.8051 1.5957-3.85 3.0976-7.2169 4.2366-12.566 4.0293-18.915-0.29-8.8794-3.6351-15.999-10.848-23.084-1.9233-1.8893-5.8608-5.0748-6.2754-5.0768zm-7.324 48.833c0.18065 0.42983 0.3669 0.8507 0.55469 1.2603l0.06836 0.01183c-0.21427-0.42259-0.42713-0.84486-0.62305-1.2722z" fill-rule="evenodd" fill="#d2e6f1"/>
 <path id="path4206-55-3-2-2" d="m18.987 8.1189c-0.19733-0.00095-1.6653 1.7372-2.2324 2.6426-0.07189 0.11476 0.01336 0.46374 0.19141 0.77734 2.4816 4.371 3.0284 8.7474 1.5859 12.688-0.86146 2.3532-1.5014 3.4906-3.8164 6.7715-3.0218 4.2827-3.8502 6.196-4.7637 11.002-0.43218 2.2739-0.48389 6.9259-0.09961 8.957 0.05579 0.29489 0.1626 0.65874 0.24805 0.99414 0.28048 0.4071 0.61174 0.80469 1.0605 1.2226 2.4352 2.2678 6.7162 4.2157 10.785 4.9043 1.0924 0.18486 3.3009 0.41941 4.9062 0.52149 1.5936 0.10135 2.5653 0.17075 3.2617 0.15625 0.44734 0.0228 0.90306 0.079 1.3613 0.1582v-0.0586c-0.55012-0.13127-0.99023-0.2547-0.99023-0.30664 0-0.0719 0.71799-1.7875 1.5957-3.8125 3.0976-7.1466 4.2366-12.444 4.0293-18.73-0.29-8.7929-3.6351-15.843-10.848-22.859-1.9233-1.8709-5.8608-5.0253-6.2754-5.0273zm-7.324 48.357c0.18065 0.42564 0.3669 0.84241 0.55469 1.248l0.06836 0.0117c-0.21427-0.41846-0.42713-0.83661-0.62305-1.2598z" fill-rule="evenodd" fill="url(#linearGradient7482-0-6)"/>
 <path id="path4188-86-4" d="m23.749 22.054-0.76172 1.0586c-0.41899 0.58164-0.94381 1.3256-1.1641 1.6543-0.22024 0.32865-0.66668 0.86035-0.99219 1.1816-0.3255 0.32128-0.87335 0.93491-1.2188 1.3633-0.60817 0.75428-2.4898 2.4904-2.7285 2.5176-0.49697 0.0566-2.0978 1.5471-3.0938 2.8809-2.2155 2.9669-3.0005 4.7304-3.9062 8.7715-0.66675 2.9752-0.68637 7.9554-0.07227 10.643 0.29874 0.43438 0.65888 0.8547 1.1523 1.2988 2.5197 2.2678 6.9499 4.2157 11.16 4.9043 1.1303 0.18486 3.4151 0.41941 5.0762 0.52149 1.4127 0.0868 2.2986 0.13922 2.9922 0.14648 0.1668-0.52262 0.80512-2.0573 1.6348-3.9043 2.5745-5.7315 3.7428-9.9932 4.1211-15.051 0.14891-1.9909-0.02392-4.7966-0.28125-4.5664-0.06823 0.0611-0.24194 0.024-0.38476-0.082-0.14283-0.10604-0.5436-0.2056-0.89062-0.2207-0.64725-0.0281-3.3347-0.6392-4.1133-0.93555-0.23941-0.0911-0.79972-0.3097-1.2441-0.48437-0.4444-0.17467-1.1774-0.3285-1.6309-0.3418-0.45343-0.0133-1.365-0.18378-2.0234-0.3789-0.65842-0.19511-1.3914-0.35924-1.6309-0.36524-0.23943-0.006-0.61223-0.13089-0.82813-0.27734-0.36649-0.24865-0.37159-0.34249-0.07031-1.4062 0.65153-2.3005 1.0288-5.0394 0.96289-6.9805l-0.063-1.947zm-13.34 32.176c0.0116 0.0347 0.02539 0.069 0.03711 0.10352-0.01273-0.0345-0.02462-0.069-0.03711-0.10352zm0.29492 0.77735c0.34884 0.93157 0.76246 1.8498 1.2852 2.8633l0.05664 0.01c-0.36231-0.67703-0.69583-1.36-1-2.0566-0.12636-0.27834-0.23133-0.54648-0.3418-0.81641z" fill-rule="evenodd" fill="url(#linearGradient7484-9-9)"/>
 <path id="path4168-8-9-9" d="m25.437 59.153c-1.813-0.139-3.862-0.354-4.553-0.479-3.343-0.6-7.002-2.271-9.178-4.192-1.8576-1.639-2.1416-2.7-2.0372-7.609l0.02942-1.3846 0.79756 0.15967c3.2298 0.64659 3.1948 0.64432 4.11 0.26647 1.0711-0.4422 1.4952-0.25701 1.7601 0.76856 0.11801 0.45686 0.28537 0.68832 0.45466 0.62883 0.14734-0.0518 1.0696 0.12309 2.0494 0.38855s2.2121 0.55707 2.7385 0.64801c0.5264 0.0909 1.6743 0.40294 2.5509 0.69334 0.87659 0.29041 2.0729 0.60023 2.6586 0.68851 0.58561 0.0883 2.0936 0.48614 3.3511 0.88413 1.7415 0.55119 2.2864 0.80531 2.2864 1.0664 0 0.96594-2.9613 7.6603-3.4055 7.6986-0.17404 0.015-1.7999-0.0868-3.613-0.22617z" fill-rule="evenodd" fill="url(#linearGradient7486-1-4)"/>
</svg>
